<mxfile host="app.diagrams.net" modified="2023-06-06T08:08:21.883Z" agent="Mozilla/5.0 (Windows NT 10.0; Win64; x64) AppleWebKit/537.36 (KHTML, like Gecko) Chrome/114.0.0.0 Safari/537.36 Edg/114.0.1823.37" etag="CVFzrqBZoGR3t0e4LeBL" version="21.3.3" type="github">
  <diagram name="第 1 页" id="zZwxx3K8C3w1xwjBk0S7">
    <mxGraphModel dx="1793" dy="1451" grid="0" gridSize="10" guides="1" tooltips="1" connect="1" arrows="1" fold="1" page="0" pageScale="1" pageWidth="827" pageHeight="1169" math="0" shadow="0">
      <root>
        <mxCell id="0" />
        <mxCell id="1" parent="0" />
        <mxCell id="niadmOFnp_dnT3OxzhgZ-1" value="&lt;font style=&quot;font-size: 20px;&quot;&gt;Linux内核尺寸缩减方法总结&lt;/font&gt;" style="rounded=0;whiteSpace=wrap;html=1;fontSize=16;dashed=1;dashPattern=12 12;" vertex="1" parent="1">
          <mxGeometry x="-627" y="-471" width="272" height="60" as="geometry" />
        </mxCell>
        <mxCell id="niadmOFnp_dnT3OxzhgZ-3" value="" style="shape=curlyBracket;whiteSpace=wrap;html=1;rounded=1;labelPosition=left;verticalLabelPosition=middle;align=right;verticalAlign=middle;fontSize=16;size=0.38499984741210935;" vertex="1" parent="1">
          <mxGeometry x="-463" y="-348.5" width="23" height="380.5" as="geometry" />
        </mxCell>
        <mxCell id="niadmOFnp_dnT3OxzhgZ-4" value="&lt;b&gt;目前主流方法&lt;/b&gt;" style="rounded=0;whiteSpace=wrap;html=1;fontSize=16;strokeColor=none;" vertex="1" parent="1">
          <mxGeometry x="-434" y="-343" width="117" height="39" as="geometry" />
        </mxCell>
        <mxCell id="niadmOFnp_dnT3OxzhgZ-5" value="&lt;font style=&quot;font-size: 20px;&quot;&gt;configuration-driven techniques&lt;/font&gt;" style="rounded=0;whiteSpace=wrap;html=1;fontSize=16;" vertex="1" parent="1">
          <mxGeometry x="-293" y="-348.5" width="301" height="50" as="geometry" />
        </mxCell>
        <mxCell id="niadmOFnp_dnT3OxzhgZ-6" value="&lt;b&gt;目前探索方法&lt;/b&gt;" style="rounded=0;whiteSpace=wrap;html=1;fontSize=16;strokeColor=none;" vertex="1" parent="1">
          <mxGeometry x="-434" y="-228.25" width="117" height="39" as="geometry" />
        </mxCell>
        <mxCell id="niadmOFnp_dnT3OxzhgZ-7" value="" style="shape=curlyBracket;whiteSpace=wrap;html=1;rounded=1;labelPosition=left;verticalLabelPosition=middle;align=right;verticalAlign=middle;fontSize=16;" vertex="1" parent="1">
          <mxGeometry x="-293" y="-286.5" width="20" height="155.5" as="geometry" />
        </mxCell>
        <mxCell id="niadmOFnp_dnT3OxzhgZ-8" value="&lt;div&gt;Link-Time Optimization&lt;/div&gt;" style="rounded=0;whiteSpace=wrap;html=1;fontSize=16;" vertex="1" parent="1">
          <mxGeometry x="-256" y="-291" width="202" height="28" as="geometry" />
        </mxCell>
        <mxCell id="niadmOFnp_dnT3OxzhgZ-9" value="&lt;div&gt;System Call Elimination&lt;/div&gt;" style="rounded=0;whiteSpace=wrap;html=1;fontSize=16;" vertex="1" parent="1">
          <mxGeometry x="-256" y="-246" width="200" height="28" as="geometry" />
        </mxCell>
        <mxCell id="niadmOFnp_dnT3OxzhgZ-10" value="&lt;div&gt;Cold-code compression&lt;/div&gt;" style="rounded=0;whiteSpace=wrap;html=1;fontSize=16;" vertex="1" parent="1">
          <mxGeometry x="-256" y="-199" width="200" height="28" as="geometry" />
        </mxCell>
        <mxCell id="niadmOFnp_dnT3OxzhgZ-11" value="……" style="rounded=0;whiteSpace=wrap;html=1;fontSize=16;" vertex="1" parent="1">
          <mxGeometry x="-255" y="-152" width="200" height="28" as="geometry" />
        </mxCell>
        <mxCell id="niadmOFnp_dnT3OxzhgZ-12" value="&lt;b&gt;目前不适用方法&lt;/b&gt;" style="rounded=0;whiteSpace=wrap;html=1;fontSize=16;strokeColor=none;" vertex="1" parent="1">
          <mxGeometry x="-434" y="-67" width="131" height="39" as="geometry" />
        </mxCell>
        <mxCell id="niadmOFnp_dnT3OxzhgZ-13" value="" style="shape=curlyBracket;whiteSpace=wrap;html=1;rounded=1;labelPosition=left;verticalLabelPosition=middle;align=right;verticalAlign=middle;fontSize=16;" vertex="1" parent="1">
          <mxGeometry x="-293" y="-113" width="20" height="135" as="geometry" />
        </mxCell>
        <mxCell id="niadmOFnp_dnT3OxzhgZ-14" value="program analysis" style="rounded=0;whiteSpace=wrap;html=1;fontSize=16;" vertex="1" parent="1">
          <mxGeometry x="-255" y="-102" width="202" height="28" as="geometry" />
        </mxCell>
        <mxCell id="niadmOFnp_dnT3OxzhgZ-15" value="compiler optimization" style="rounded=0;whiteSpace=wrap;html=1;fontSize=16;" vertex="1" parent="1">
          <mxGeometry x="-256" y="-56" width="202" height="28" as="geometry" />
        </mxCell>
        <mxCell id="niadmOFnp_dnT3OxzhgZ-16" value="machine learning" style="rounded=0;whiteSpace=wrap;html=1;fontSize=16;" vertex="1" parent="1">
          <mxGeometry x="-255" y="-10" width="202" height="28" as="geometry" />
        </mxCell>
        <mxCell id="niadmOFnp_dnT3OxzhgZ-17" value="" style="shape=curlyBracket;whiteSpace=wrap;html=1;rounded=1;flipH=1;labelPosition=right;verticalLabelPosition=middle;align=left;verticalAlign=middle;fontSize=16;" vertex="1" parent="1">
          <mxGeometry x="-19" y="-106" width="20" height="131" as="geometry" />
        </mxCell>
        <mxCell id="niadmOFnp_dnT3OxzhgZ-18" value="分析技术的局限性" style="rounded=0;whiteSpace=wrap;html=1;fontSize=16;strokeColor=none;" vertex="1" parent="1">
          <mxGeometry x="15" y="-58.5" width="149" height="36" as="geometry" />
        </mxCell>
      </root>
    </mxGraphModel>
  </diagram>
</mxfile>
